<svg width="200" height="200" xmlns="http://www.w3.org/2000/svg">
  <defs>
    <linearGradient id="pigGrad4" x1="0%" y1="0%" x2="100%" y2="100%">
      <stop offset="0%" style="stop-color:#FFB6C1;stop-opacity:1" />
      <stop offset="100%" style="stop-color:#FFC0CB;stop-opacity:1" />
    </linearGradient>
  </defs>
  <ellipse cx="100" cy="115" rx="40" ry="30" fill="url(#pigGrad4)" stroke="#FF69B4" stroke-width="2"/>
  <circle cx="100" cy="90" r="28" fill="url(#pigGrad4)" stroke="#FF69B4" stroke-width="2"/>
  <ellipse cx="88" cy="85" rx="7" ry="6" fill="black"/>
  <ellipse cx="112" cy="85" rx="7" ry="6" fill="black"/>
  <circle cx="89" cy="83" r="2" fill="white"/>
  <circle cx="113" cy="83" r="2" fill="white"/>
  <ellipse cx="100" cy="92" rx="4" ry="3" fill="#FF69B4"/>
  <ellipse cx="70" cy="110" rx="6" ry="5" fill="url(#pigGrad4)" stroke="#FF69B4" stroke-width="1"/>
  <ellipse cx="130" cy="110" rx="6" ry="5" fill="url(#pigGrad4)" stroke="#FF69B4" stroke-width="1"/>
  <ellipse cx="70" cy="135" rx="4" ry="3" fill="#FF69B4"/>
  <ellipse cx="130" cy="135" rx="4" ry="3" fill="#FF69B4"/>
  <path d="M 100 80 L 100 65 M 96 70 L 104 70" stroke="#FF69B4" stroke-width="2.5" fill="none"/>
  <path d="M 85 70 Q 80 65 75 70" stroke="#FF69B4" stroke-width="2" fill="none"/>
</svg>

